<svg xmlns="http://www.w3.org/2000/svg" viewBox="0 0 594.42 673.02"><defs><style>.cls-1{fill:#bfbc99;}</style></defs><g id="Capa_2" data-name="Capa 2"><g id="Capa_1-2" data-name="Capa 1"><path class="cls-1" d="M.06,336.58Q.06,254.4,0,172.2c0-2.88.7-4.55,3.36-6Q61.73,133.22,120,100.06,192.85,58.68,265.7,17.25C275.33,11.78,285,6.43,294.6.83c2.21-1.3,3.74-.95,5.74.2q47.57,27.12,95.2,54.12,62.94,35.75,125.89,71.48,35.19,20,70.44,39.91c2.38,1.34,2.46,3,2.46,5.24q0,163.36.09,326.73c0,4.84-1.34,7.42-5.66,9.85-40.72,22.85-81.27,46-121.87,69Q383.64,624.68,300.42,672c-2.15,1.22-3.71,1.46-6,.14Q219.25,629.29,144,586.63,72.15,545.85.29,505.11a.56.56,0,0,1-.29-.49Q.12,420.59.06,336.58Zm246.62,113q-102.51,0-205-.07c-2.29,0-2.27,1-2.27,2.59,0,6.84.66,13.75-.15,20.49-1,8.06,2.25,12,9.19,15.84C87.79,510.27,126.81,532.7,166,554.92q65.67,37.29,131.31,74.63h.08Q338.1,606.2,379,583.06q56.1-31.83,112.23-63.57c2.12-1.2,2.1-2.1,1-4.08q-18.09-31.42-35.93-63c-1.35-2.41-2.86-3.13-5.52-3.13q-102,.11-204,.06ZM555.35,190.34a.62.62,0,0,0-.32-.54c-13.1-7.25-26.12-14.64-39.13-22q-77.47-44-154.91-88.07-19.11,32.16-38.52,64.16c-1.06,1.76-.78,3,.14,4.55Q358,208.82,393.27,269.28q42.45,72.63,84.88,145.26,23.89,40.89,47.76,81.79c1.35,2.34,2.22,2.55,5.43.23a97.09,97.09,0,0,1,19.1-10.9c3.62-1.53,4.91-3,4.91-6.28q-.15-71.43-.07-142.85Q555.28,263.44,555.35,190.34Zm-516,219.17c0,2.52,1,2.67,2.91,2.66q36.78-.06,73.56,0,13.29-23.37,26.82-46.6,35.49-61.31,71-122.59,27.18-46.93,54.32-93.87,25.74-44.46,51.54-88.89c1.58-2.72.95-3.73-1.48-5q-10.47-5.62-20.67-11.74-36.88,21.06-73.85,42L107,151.63q-32.56,18.5-65.14,37c-1.49.84-2.5,1.6-2.5,3.78.12,36.18.08,72.37.08,108.56S39.44,373.32,39.33,409.51ZM263.46,248.37q-49,80.26-97.91,160.54c-.56.92-1.78,1.89-1.26,2.91s2,.49,3.07.49q127,0,254.09,0c1.05,0,2.17.28,3.45-.46L297.69,192.22Z"/></g></g></svg>