<svg xmlns="http://www.w3.org/2000/svg" xmlns:xlink="http://www.w3.org/1999/xlink" viewBox="0 0 238.69 238.58"><defs><style>.cls-1{fill:url(#Degradado_sin_nombre_2);}.cls-2{fill:#e2cc9b;}.cls-3{fill:#ebdcbb;}.cls-4{fill:#eee0c3;}.cls-5{fill:#dcc085;}.cls-6{fill:#e2d1a5;}.cls-7{fill:#e7d4ac;}.cls-8{fill:#f4f1e6;}.cls-9{fill:#f0eddd;}.cls-10{fill:#e7d3aa;}.cls-11{fill:#e7dcbb;}.cls-12{fill:#f3ead8;}.cls-13{fill:#f6f0e3;}.cls-14{fill:url(#Degradado_sin_nombre_24);}.cls-15{fill:#2a2a29;}.cls-16{fill:#fdfdfd;}.cls-17{fill:#fdfcfc;}.cls-18{fill:#ea6569;}.cls-19{fill:url(#Degradado_sin_nombre_2-2);}.cls-20{fill:url(#Degradado_sin_nombre_2-3);}.cls-21{fill:url(#Degradado_sin_nombre_2-4);}.cls-22{fill:url(#Degradado_sin_nombre_24-2);}.cls-23{fill:url(#Degradado_sin_nombre_24-3);}.cls-24{fill:#e21e24;}.cls-25{fill:url(#Degradado_sin_nombre_24-4);}.cls-26{fill:url(#Degradado_sin_nombre_24-5);}.cls-27{fill:url(#Degradado_sin_nombre_24-6);}.cls-28{fill:url(#Degradado_sin_nombre_24-7);}.cls-29{fill:url(#Degradado_sin_nombre_24-8);}</style><linearGradient id="Degradado_sin_nombre_2" x1="0.19" y1="119.29" x2="238.69" y2="119.29" gradientUnits="userSpaceOnUse"><stop offset="0" stop-color="#b6a480"/><stop offset="0.37" stop-color="#b9aa80"/><stop offset="1" stop-color="#bbae80"/></linearGradient><linearGradient id="Degradado_sin_nombre_24" x1="8.76" y1="119.32" x2="230.52" y2="119.32" gradientUnits="userSpaceOnUse"><stop offset="0" stop-color="#e21e24"/><stop offset="1" stop-color="#931d1f"/></linearGradient><linearGradient id="Degradado_sin_nombre_2-2" x1="122.02" y1="107.58" x2="161.74" y2="107.58" xlink:href="#Degradado_sin_nombre_2"/><linearGradient id="Degradado_sin_nombre_2-3" x1="72.88" y1="118.16" x2="106.1" y2="118.16" xlink:href="#Degradado_sin_nombre_2"/><linearGradient id="Degradado_sin_nombre_2-4" x1="110" y1="107.7" x2="118.61" y2="107.7" xlink:href="#Degradado_sin_nombre_2"/><linearGradient id="Degradado_sin_nombre_24-2" x1="179.39" y1="166.37" x2="184.88" y2="166.37" xlink:href="#Degradado_sin_nombre_24"/><linearGradient id="Degradado_sin_nombre_24-3" x1="156.68" y1="50.7" x2="162.58" y2="50.7" xlink:href="#Degradado_sin_nombre_24"/><linearGradient id="Degradado_sin_nombre_24-4" x1="166.81" y1="63.24" x2="175.68" y2="63.24" xlink:href="#Degradado_sin_nombre_24"/><linearGradient id="Degradado_sin_nombre_24-5" x1="185.68" y1="92.63" x2="195.27" y2="92.63" xlink:href="#Degradado_sin_nombre_24"/><linearGradient id="Degradado_sin_nombre_24-6" x1="193.06" y1="139.9" x2="197.49" y2="139.9" xlink:href="#Degradado_sin_nombre_24"/><linearGradient id="Degradado_sin_nombre_24-7" x1="110.79" y1="190.92" x2="114.42" y2="190.92" xlink:href="#Degradado_sin_nombre_24"/><linearGradient id="Degradado_sin_nombre_24-8" x1="123.99" y1="195.55" x2="127.67" y2="195.55" xlink:href="#Degradado_sin_nombre_24"/></defs><g id="Capa_2" data-name="Capa 2"><g id="Capa_1-2" data-name="Capa 1"><path class="cls-1" d="M123,238.58h-5.29a11.55,11.55,0,0,0-2.42-.11h-3.16a88.2,88.2,0,0,1-19.27-2.37,121.07,121.07,0,0,1-22.4-7.5,120.25,120.25,0,0,1-28.46-18,123.21,123.21,0,0,1-11.34-11.05,117.39,117.39,0,0,1-11.31-14.6A120.91,120.91,0,0,1,6.78,159.77a122.36,122.36,0,0,1-5.43-20.84A81.82,81.82,0,0,1,.22,124.69v-1.88c-.06-2.38,0-4.75,0-7.13V113.8c-.09-9.14,1.57-18,4-26.78a114.39,114.39,0,0,1,7.88-20.63A119.13,119.13,0,0,1,27.3,42.92,112,112,0,0,1,35,34.46,120.08,120.08,0,0,1,83.65,5,116.39,116.39,0,0,1,102.83.71,121.68,121.68,0,0,1,115.77,0h8.36A96.24,96.24,0,0,1,147,2.71a123.59,123.59,0,0,1,22.44,7.69,121.52,121.52,0,0,1,21.82,13,116.28,116.28,0,0,1,16.39,14.8,119.52,119.52,0,0,1,28.79,54.91,71.34,71.34,0,0,1,2.07,15.33c0,1.17.06,2.34.08,3.51v1.24a4.88,4.88,0,0,0,.11,1.57V124a6.14,6.14,0,0,0-.11,1.76V127a86.74,86.74,0,0,1-3.43,23.74,120.61,120.61,0,0,1-32.85,55.2,121.37,121.37,0,0,1-21.7,16.44A118.5,118.5,0,0,1,156,233.44a111.11,111.11,0,0,1-21.24,4.66c-2.68.3-5.41.32-8.12.37H125A8,8,0,0,0,123,238.58Z"/><path class="cls-2" d="M.42,115.59A15.18,15.18,0,0,1,.28,119a1.94,1.94,0,0,0,0,.76,13.93,13.93,0,0,1,.14,3.16c-.71-.36,0-1.1-.42-1.55v-4.19C.39,116.69-.29,116,.42,115.59Z"/><path class="cls-3" d="M0,121.33a1.13,1.13,0,0,1,.22.71,1.44,1.44,0,0,0,.2.84c0,.66,0,1.32,0,2a1.73,1.73,0,0,1-.19-1,1.44,1.44,0,0,0-.22-.83Z"/><path class="cls-4" d="M.42,115.59a1.46,1.46,0,0,0-.2.84,1.13,1.13,0,0,1-.22.71v-1.76a1.35,1.35,0,0,0,.22-.83,1.72,1.72,0,0,1,.19-.94C.41,114.27.42,114.93.42,115.59Z"/><path class="cls-5" d="M115.24,238.38h1.63a1.2,1.2,0,0,1,.82.21h-2.42C115.12,238.53,115.11,238.47,115.24,238.38Z"/><path class="cls-6" d="M123,238.58a3.72,3.72,0,0,1,2-.19c.13.08.12.14,0,.19Z"/><path class="cls-7" d="M238.5,125.76a3,3,0,0,1,.19-1.79v1.77C238.64,125.89,238.58,125.9,238.5,125.76Z"/><path class="cls-8" d="M112,238.58v-.2l1.75,0c.16,0,.17.11,0,.18Z"/><path class="cls-9" d="M125,238.58a1.23,1.23,0,0,1,0-.19h1.75a1.21,1.21,0,0,0,0,.19Z"/><path class="cls-10" d="M238.69,114.72a2.47,2.47,0,0,1-.19-1.56c.08-.12.14-.12.19,0Z"/><path class="cls-11" d="M113.73,238.58c0-.06,0-.12,0-.18l1.53,0,0,.2Z"/><path class="cls-12" d="M238.69,113.18a.58.58,0,0,0-.19,0c0-.44,0-.88,0-1.32a.55.55,0,0,1,.18,0Z"/><path class="cls-13" d="M238.5,125.76l.19,0v1.32h-.18C238.5,126.63,238.5,126.19,238.5,125.76Z"/><path class="cls-14" d="M36.53,84.25a.45.45,0,0,0-.16-.46c-.3-.2-.61-.4-.93-.58L19,73.4c-1.34-.79-1.23-.57-.63-1.91a96.23,96.23,0,0,1,4.86-9.75c1.65-2.83,3.46-5.55,5.31-8.25.45-.66.91-1.33,1.38-2,.27-.39.37-.42.83-.21,1,.46,2,.94,3,1.41l15.75,7.4c1.12.53,1,.57,1.85-.34q6.45-6.65,12.88-13.3l.38-.4a.53.53,0,0,0,.12-.61c-.14-.33-.28-.67-.43-1L57.42,28.68c-.06-.14-.12-.27-.17-.41-.31-.76-.32-.77.41-1.2l15.69-9.4,1.8-1.06c.6-.35.61-.34,1.1.2l4.12,4.6,8.89,9.92c.82.92.71.84,1.78.5l15.82-5.12.42-.14c.82-.29.86-.31.87-1.17,0-2.31.07-4.62.11-6.94.06-3.12.14-6.24.21-9.36a5.06,5.06,0,0,1,0-.55c0-.33.16-.45.49-.48s.59,0,.88,0c2.61,0,5.22,0,7.83-.08,4.73-.14,9.47-.12,14.21-.17,1.44,0,1.35-.11,1.48,1.33.32,3.37.68,6.72,1,10.08.18,1.87.31,3.74.53,5.6.24,2-.07,1.59,1.69,2.2l16.88,5.77c1.24.42,1,.48,1.78-.54q5.19-7,10.36-14c.86-1.16.65-1.12,1.86-.35l17.19,11c1,.62.9.55.43,1.54q-3.3,7-6.62,13.93c-.64,1.35-.65,1.15.35,2.27q6,6.75,12,13.49c.44.5.89,1,1.33,1.47a.56.56,0,0,0,.7.14l4-1.67,12.68-5.36c1.31-.55,1.2-.53,1.79.67q4.56,9.24,9.1,18.48c.49,1,.55.92-.38,1.57q-6.24,4.33-12.48,8.69c-1.5,1.06-1.28.56-.94,2.39.9,5,1.85,10,2.78,14.94.29,1.59.59,3.17.89,4.76a3.21,3.21,0,0,0,.15.53.42.42,0,0,0,.33.26l.33,0,3.4.21,6.6.39,5.39.29c1.14.06,2.27.13,3.41.21.53,0,.62.12.62.69,0,2.28-.05,4.55-.08,6.83,0,.88-.06,1.76-.07,2.64q-.06,6.12-.11,12.24c0,1.51,0,1.36-1.39,1.45-3.22.21-6.45.44-9.67.67l-5.93.42c-.48,0-1,.09-1.42.15-.66.08-.7.1-.87.78-.45,1.78-.88,3.56-1.31,5.35q-1.83,7.49-3.66,15c-.36,1.47-.26,1.32.8,2.06l13.08,9.16c1,.67,1,.55.36,1.51l-11.25,18c-.11.18-.23.37-.36.55a.38.38,0,0,1-.48.15l-1-.44c-4.55-2.06-9.11-4.1-13.65-6.19a1.33,1.33,0,0,0-1.74.25c-4.59,4.35-9.21,8.65-13.82,13-1.15,1.08-1,.73-.47,2.11,2.09,5.29,4.22,10.57,6.33,15.86.59,1.48.69,1.25-.69,2l-17.26,8.85c-1.17.6-1,.68-1.81-.43l-9.44-13.29c-.86-1.2-.63-1-1.95-.66q-8.85,2.53-17.68,5.1c-1.46.42-1.3.24-1.45,1.74-.39,3.87-.83,7.74-1.24,11.61-.17,1.61-.32,3.21-.49,4.82a2.22,2.22,0,0,1-.06.44.4.4,0,0,1-.36.35,6.69,6.69,0,0,1-.77,0l-21-.07c-1.28,0-1.28,0-1.29-1.28,0-5.29,0-10.58-.06-15.87,0-1.53.14-1.34-1.35-1.74L89,207.07c-1.25-.33-1.13-.44-2,.72q-4.86,6.75-9.74,13.49c-.81,1.12-.6,1.06-1.79.38l-17.91-10.4-.29-.16c-1-.59-.91-.5-.52-1.53,2.08-5.42,4.17-10.83,6.23-16.26.57-1.5.68-1.09-.42-2.26l-12-12.65c-1.08-1.14-.82-1.06-2.19-.39l-15.8,7.82-.4.2c-.84.4-.85.41-1.38-.4Q25.22,177,19.61,168.36c-.3-.46-.6-.92-.89-1.39a.37.37,0,0,1,.05-.5l.31-.31,16.05-14.94.33-.3a.76.76,0,0,0,.24-.8c-.1-.35-.19-.71-.29-1.06q-2.31-8.16-4.62-16.32c-.39-1.37-.22-1.22-1.6-1.33L22,130.79l-6.37-.57c-1.24-.11-2.49-.2-3.73-.3-.84-.07-1.68-.14-2.52-.23-.41,0-.52-.16-.55-.54s0-.51,0-.77l0-19.83V108c0-.68.05-.71.76-.81,1-.14,2-.26,2.95-.37l9.63-1.09c2.26-.25,4.53-.46,6.78-.74,1.78-.22,1.44,0,1.91-1.6q2.74-9.12,5.45-18.26C36.37,84.82,36.45,84.5,36.53,84.25Z"/><path class="cls-15" d="M16.64,162.07a1.22,1.22,0,0,1-.47-.73,109.19,109.19,0,0,1-6.27-21.4c-.29-1.55-.53-3.11-.79-4.66,0-.22,0-.44,0-.66a.23.23,0,0,1,.2-.22,3.64,3.64,0,0,1,.66,0l10.09.86,5.92.52.55.06a.5.5,0,0,1,.46.4c.15.53.31,1,.46,1.58l2.91,10.27a3,3,0,0,0,.09.32,1,1,0,0,1-.35,1.24q-4.45,4.11-8.87,8.25l-4,3.75C17,161.79,16.82,161.92,16.64,162.07Z"/><path class="cls-15" d="M9.46,102.5a.25.25,0,0,1-.15-.28c0-.48.12-1,.2-1.42a111.46,111.46,0,0,1,6.35-22.72c.06-.14.11-.28.17-.41.19-.41.26-.43.66-.22.16.09.32.18.47.28l13.05,7.76.38.23c.54.34.57.37.39,1-.62,2.11-1.26,4.21-1.89,6.32l-1.95,6.53c-.05.18-.11.35-.16.53a.68.68,0,0,1-.69.57c-1.9.2-3.79.42-5.68.64l-6.89.78-3.93.44C9.71,102.51,9.64,102.5,9.46,102.5Z"/><path class="cls-15" d="M52.79,30a.65.65,0,0,1,.34.42c2,4.58,4,9.16,6,13.73a.91.91,0,0,1-.24,1.16Q54.42,49.91,50,54.51l-.24.23a.46.46,0,0,1-.59.12,6.54,6.54,0,0,0-.6-.28L35.1,48.25c-.24-.11-.47-.21-.7-.33s-.29-.29-.11-.53.28-.35.42-.51A111.54,111.54,0,0,1,52,30.56,2.6,2.6,0,0,1,52.79,30Z"/><path class="cls-15" d="M58.06,193.2c-.07.22-.15.46-.24.7l-2,5.34q-1.52,3.94-3,7.91c-.1.27-.2.54-.32.81a.29.29,0,0,1-.46.11l-.35-.26A111.32,111.32,0,0,1,34.15,191.1c-.49-.57-.48-.61.17-.93L48,183.39l.41-.18a.35.35,0,0,1,.4.07c.17.15.32.31.47.47l8.24,8.71A1.56,1.56,0,0,1,58.06,193.2Z"/><path class="cls-15" d="M223.39,78.83c.32.24.36.63.49,1a112.57,112.57,0,0,1,4,12.82c.79,3.21,1.42,6.45,1.93,9.71.19,1.14.15,1.16-1,1.09l-10.89-.62-3.08-.2c-.42,0-.49-.09-.57-.52-.37-1.91-.73-3.83-1.09-5.74l-1.5-8a2.14,2.14,0,0,0-.07-.43,1.05,1.05,0,0,1,.55-1.36c3.54-2.43,7.06-4.9,10.59-7.35A1.4,1.4,0,0,1,223.39,78.83Z"/><path class="cls-15" d="M229.66,137.2c-.07.48-.16,1.06-.26,1.63a111.71,111.71,0,0,1-6.27,22c-.43,1.07-.4,1.07-1.32.43q-5-3.54-10.1-7.06a.31.31,0,0,0-.09-.07c-.63-.29-.63-.76-.47-1.36.46-1.77.88-3.56,1.32-5.34q1.07-4.37,2.15-8.75c0-.22.09-.43.15-.64a.49.49,0,0,1,.47-.4l1.09-.12L224,137c1.5-.1,3-.22,4.5-.33l.66,0C229.59,136.57,229.69,136.68,229.66,137.2Z"/><path class="cls-15" d="M189.5,32.43a111.46,111.46,0,0,1,17.76,18,.68.68,0,0,1-.46.41l-12.47,5.27-.31.12a.42.42,0,0,1-.5-.09l-.37-.41-9.09-10.2a2.5,2.5,0,0,0-.22-.24.78.78,0,0,1-.17-1.07c1.82-3.78,3.61-7.56,5.4-11.34A.7.7,0,0,1,189.5,32.43Z"/><path class="cls-15" d="M187.82,207.51a1.09,1.09,0,0,1-.43-.63l-4.65-11.64a2,2,0,0,0-.12-.31.57.57,0,0,1,.19-.77l.32-.3,9.56-9c.78-.72.7-.7,1.61-.29L205,189.46l.3.15c.55.27.57.32.2.78q-3,3.69-6.41,7.11a113.49,113.49,0,0,1-10.39,9.34Z"/><path class="cls-15" d="M138.19,10.64c-.09-1.25-.27-1.37,1.05-1.14a111.31,111.31,0,0,1,21.12,6c.27.11.55.21.81.33s.3.27.13.52-.26.35-.39.53l-7.39,10c-.11.15-.23.29-.33.45a.54.54,0,0,1-.74.25,4.72,4.72,0,0,0-.53-.18l-11.54-3.94a3,3,0,0,0-.42-.15.74.74,0,0,1-.63-.78c0-.58-.1-1.17-.16-1.75C138.84,17.32,138.51,13.89,138.19,10.64Z"/><path class="cls-15" d="M80.77,14.71,82,14.24a112.25,112.25,0,0,1,19.59-5c.61-.1,1.23-.18,1.85-.26a.3.3,0,0,1,.37.3c0,.26,0,.52,0,.77q-.14,6.06-.25,12.12c0,.18,0,.36,0,.55a.38.38,0,0,1-.26.32,6.5,6.5,0,0,1-.62.22L92.29,26.57l-.31.11a.66.66,0,0,1-.88-.2,4.83,4.83,0,0,0-.37-.42L81.47,15.72A2.14,2.14,0,0,1,80.77,14.71Z"/><path class="cls-15" d="M103.63,222.83v5.84c0,.22,0,.44,0,.66s-.14.4-.42.36c-.88-.13-1.75-.26-2.62-.41a111.44,111.44,0,0,1-18.3-4.78c-1.4-.5-1.34-.37-.51-1.52l7.16-9.91.52-.71a.53.53,0,0,1,.58-.2c.18,0,.36.11.53.15l12.12,3.27c1,.26.9.35.9,1.19,0,2,0,4,0,6.06Z"/><path class="cls-15" d="M160,223.23a2,2,0,0,1-.78.39,108.76,108.76,0,0,1-18.72,5.29l-3.47.61c-.35,0-.47-.07-.43-.44.12-1.32.25-2.63.38-3.94l.81-7.67A3.24,3.24,0,0,1,138,216c.29-.44.91-.41,1.39-.55,3.66-1.07,7.33-2.12,11-3.18.32-.1.64-.18,1-.29a.79.79,0,0,1,1,.37c.33.52.72,1,1.08,1.53q3,4.22,6,8.44C159.66,222.58,160,222.82,160,223.23Z"/><path class="cls-15" d="M174,151.41a2,2,0,0,1-1.06.12l-29-.3-11.23-.15c-8.67-.1-17.34-.15-26-.3-5.76-.1-11.53-.12-17.29-.19l-20.72-.24c-.4,0-.8,0-1.21,0s-.53-.19-.33-.55.5-.9.76-1.35l18.39-31.74,32.13-55.48c.55-1,1.11-1.91,1.67-2.85.13-.21.32-.22.44,0s.31.49.46.75l38.43,66.86,13.89,24.16A5.4,5.4,0,0,1,174,151.41Z"/><path class="cls-16" d="M177.58,166.09c-2.1.75-4,.25-6,.11-.47,0-.94-.12-1.38-.18-.12-.24,0-.37.13-.52.45-.58.91-1.15,1.35-1.74a.81.81,0,0,1,.76-.33l4.06.28.44,0a3,3,0,0,0,3.28-1.66.33.33,0,0,0,0-.1.12.12,0,0,0-.05-.1L176,158.5a3.94,3.94,0,0,1,.72-1.07c.25-.32.5-.64.76-1a.29.29,0,0,1,.4,0l.52.4,9.29,7.26a5.47,5.47,0,0,1,.58.5.24.24,0,0,1,0,.3c-.09.12-.17.24-.26.35q-1.69,2.18-3.4,4.34a10.82,10.82,0,0,1-1.49,1.61,3.33,3.33,0,0,1-3.9.46,3.62,3.62,0,0,1-2-4.78Z"/><path class="cls-16" d="M160,55.31a9.52,9.52,0,0,1,.88,4.29c0,.95.12,1.9.17,2.81-.21.21-.38.09-.53,0-.58-.31-1.14-.67-1.73-1a1.16,1.16,0,0,1-.71-1.12c-.09-1.21-.2-2.41-.31-3.62,0-.47-.12-.94-.18-1.41a2.19,2.19,0,0,0-1.11-1.68,2.37,2.37,0,0,0-1-.48,2.26,2.26,0,0,0-.6.9c-.69,1.21-1.36,2.43-2,3.65a.35.35,0,0,1-.54.17c-.57-.33-1.15-.64-1.73-1-.21-.12-.34-.27-.17-.52s.17-.33.26-.49q2.88-5.19,5.75-10.39c.52-.93.47-.83,1.31-.37,1.44.79,2.89,1.59,4.33,2.4a15.14,15.14,0,0,1,1.93,1.25,3.46,3.46,0,0,1,1,4.43,4,4,0,0,1-.8,1.18,3.53,3.53,0,0,1-3.22,1C160.72,55.39,160.43,55.18,160,55.31Z"/><path class="cls-16" d="M84.84,53.09c-1.39-2.52-2.78-5.05-4.2-7.61a18.64,18.64,0,0,1,2.13-1.22,1,1,0,0,1,.26.24c2.16,3.87,4.3,7.75,6.47,11.66a18.41,18.41,0,0,1-2.11,1.24.58.58,0,0,1-.62,0L86.1,57l-6.91-3.87-.94-.5c-.06.06-.1.09-.11.12a.13.13,0,0,0,0,.1l4,7.23a.41.41,0,0,1,0,.12.91.91,0,0,1-.21.23,14,14,0,0,1-1.85,1A4.85,4.85,0,0,1,79,59.67c-1.71-3-3.38-6.09-5.07-9.14-.12-.22-.24-.45-.37-.67s-.13-.42.11-.55c.57-.33,1.16-.64,1.73-1a.53.53,0,0,1,.61,0c.22.14.45.25.67.38l7.18,4.06c.28.16.57.3.86.45Z"/><path class="cls-16" d="M128,44.83l.51-7.35c.1-1.38.05-1.27,1.35-1.13,1.49.17,1.33-.18,1.23,1.47-.16,2.64-.37,5.27-.56,7.9-.1,1.32-.18,2.64-.28,4,0,.4-.1.46-.45.47l-.44,0a4.16,4.16,0,0,1-1.84-.24c-.5-.29-.62-1-.89-1.48-1.16-2.17-2.29-4.34-3.44-6.52-.15-.28-.32-.55-.48-.82-.28.12-.2.33-.21.48-.16,2.16-.29,4.32-.47,6.48-.16,1.87.08,1.51-1.59,1.47h-.11c-1,0-1,0-.91-1q.28-4.28.59-8.56c.09-1.21.17-2.41.26-3.62,0-.58.06-.58.69-.54l1.65.09a.6.6,0,0,1,.53.32c.16.29.31.58.46.88l4,7.59C127.73,44.74,127.78,45,128,44.83Z"/><path class="cls-16" d="M45.67,117.81c.55,0,1.1-.06,1.64-.16a1.24,1.24,0,0,1,1.32.57,10.12,10.12,0,0,1,1.87,4.3,8.1,8.1,0,0,1-.25,3.91,5.54,5.54,0,0,1-2.44,3.15,8.23,8.23,0,0,1-7.09.83,5.9,5.9,0,0,1-4.16-4.83,8.44,8.44,0,0,1,0-3.71,4.68,4.68,0,0,1,3-3.37c.25-.1.41,0,.49.25.18.68.36,1.35.53,2a.31.31,0,0,1-.14.37c-.19.12-.38.23-.56.36a2.58,2.58,0,0,0-1.1,1.72,3.76,3.76,0,0,0,3.39,4.71,8.33,8.33,0,0,0,3.06-.25,3.77,3.77,0,0,0,2.76-5,6.62,6.62,0,0,0-.93-1.86.74.74,0,0,0-.76-.33q-.43.06-.87.09c-.29,0-.37.18-.36.44.05.77.09,1.54.14,2.31a.35.35,0,0,1-.36.43c-.51.05-1,.1-1.54.13-.27,0-.39-.15-.4-.4-.13-1.72-.25-3.45-.37-5.17a.31.31,0,0,1,.3-.37l2.75-.24Z"/><path class="cls-16" d="M99.48,47.1l-2.37.77c-.46.14-.57.09-.73-.38s-.32-1-.5-1.63c1.87-.67,3.72-1.23,5.52-1.81a.72.72,0,0,1,.32.49c.45,1.36.88,2.72,1.34,4.07a1.15,1.15,0,0,1-.22,1.22,9.51,9.51,0,0,1-5.26,3.41,6.94,6.94,0,0,1-3.59,0,5.78,5.78,0,0,1-1.95-1,8.39,8.39,0,0,1-2.78-8.32,5.65,5.65,0,0,1,2.19-3.21,8.22,8.22,0,0,1,5.27-1.59,4.49,4.49,0,0,1,3.65,2.15c.16.23.13.34-.17.51-.57.33-1.16.63-1.73,1a.42.42,0,0,1-.58-.11,2.91,2.91,0,0,0-1.47-.92,3.81,3.81,0,0,0-4.64,3.91,7.65,7.65,0,0,0,1.16,3.53A3.68,3.68,0,0,0,98,50.58a4.44,4.44,0,0,0,1-.66C100.28,48.76,100.33,48.85,99.48,47.1Z"/><path class="cls-16" d="M51.51,164.61a5.57,5.57,0,0,1,1.11-3.42,9.28,9.28,0,0,1,4.35-3.4,5.76,5.76,0,0,1,6.08,1,7.63,7.63,0,0,1,2.67,4.31,5.3,5.3,0,0,1-.56,3.83,8.83,8.83,0,0,1-6.3,4.52,5.36,5.36,0,0,1-3.89-.84,8.12,8.12,0,0,1-3.15-4A5.77,5.77,0,0,1,51.51,164.61Z"/><path class="cls-16" d="M178.31,62.79a5.9,5.9,0,0,1-.8,3.05,9.91,9.91,0,0,1-3.27,3.51,5.93,5.93,0,0,1-7-.18A8,8,0,0,1,165,66.79a5.73,5.73,0,0,1-.43-5.47,9,9,0,0,1,4.17-4.52,5.73,5.73,0,0,1,6.24.36,8.56,8.56,0,0,1,2.26,2.23A5.84,5.84,0,0,1,178.31,62.79Z"/><path class="cls-16" d="M44.43,95.24a9.87,9.87,0,0,1,4.24,1A6.07,6.07,0,0,1,52.1,103a8.36,8.36,0,0,1-.78,2.5,5.85,5.85,0,0,1-5.21,3.31,9.53,9.53,0,0,1-4.88-1.1,5.68,5.68,0,0,1-3.15-3.88A7.25,7.25,0,0,1,39.94,97,5.79,5.79,0,0,1,44.43,95.24Z"/><path class="cls-16" d="M56,90c-4-2.26-7.85-4.52-11.68-6.74a.64.64,0,0,1,.14-.69q1.14-2,2.31-4a13.66,13.66,0,0,1,.92-1.37,4.7,4.7,0,0,1,4.57-1.85,9.74,9.74,0,0,1,5.94,3.09,5,5,0,0,1,.9,6.19c-.61,1.21-1.32,2.37-2,3.55A18.1,18.1,0,0,1,56,90Z"/><path class="cls-16" d="M182.5,89.91c.33-.14.53-.23.73-.3l11.42-3.94.63-.2a.24.24,0,0,1,.27.14,2.59,2.59,0,0,1,.14.29c.57,1.67,1.15,3.33,1.7,5a7,7,0,0,1,.35,1.71,4.69,4.69,0,0,1-1,3.29,5.36,5.36,0,0,1-1.16,1.17,10.2,10.2,0,0,1-6.48,2A4.85,4.85,0,0,1,185,96.57a6.39,6.39,0,0,1-.47-1C183.83,93.72,183.19,91.85,182.5,89.91Z"/><path class="cls-16" d="M142.84,47.33c-.39,1.17-.74,2.21-1.06,3.26-.09.27.13.37.36.44l4,1.3,2.2.7a1.15,1.15,0,0,1,.61.36,10.23,10.23,0,0,1-.73,2l-4-1.3-5.33-1.74c-.49-.16-.52-.23-.36-.72q1.66-5.13,3.34-10.26c.19-.59.37-1.18.57-1.78.14-.41.23-.46.64-.33l4.4,1.41,4.28,1.41.35.14a.4.4,0,0,1,.05.46,7.51,7.51,0,0,1-.6,1.64,3.93,3.93,0,0,1-1.68-.41c-1.64-.51-3.28-1.06-4.92-1.59-.37-.12-.44-.08-.56.28-.23.66-.45,1.32-.65,2-.12.4-.05.52.35.66l3.45,1.12,2.09.68c.46.16.49.22.32.73a6.57,6.57,0,0,1-.6,1.6Z"/><path class="cls-16" d="M60.32,71.78,63,74.1c.38,0,.48-.27.64-.45,1.26-1.43,2.51-2.88,3.76-4.32l.75-.83a2.85,2.85,0,0,1,.88.67,3.09,3.09,0,0,1,.78.75c0,.26-.2.39-.34.55l-5.77,6.66c-.15.16-.29.33-.45.48a.29.29,0,0,1-.4,0l-.5-.42-9-7.81a1.63,1.63,0,0,1-.6-.69l6.6-7.59L61,62.56a1.75,1.75,0,0,1-.58.86c-1.15,1.34-2.31,2.66-3.46,4-.17.2-.34.39-.5.59a.32.32,0,0,0,.06.48c.64.55,1.26,1.13,2,1.62.2.15.39-.23.55-.41,1.14-1.3,2.27-2.61,3.4-3.91l.44-.49a.31.31,0,0,1,.48,0l1.46,1.28C63.36,68.3,61.86,70,60.32,71.78Z"/><path class="cls-16" d="M38.17,136c.66-.19,1.22-.36,1.79-.5.32-.09.46,0,.56.35.17.6.32,1.2.48,1.8l1.08,4c.05.18.1.36.16.53a.31.31,0,0,0,.41.25l2.12-.58c.42-.12.47-.2.35-.64-.38-1.45-.79-2.9-1.16-4.35a8.26,8.26,0,0,1-.4-1.75,7.61,7.61,0,0,1,1.87-.56.3.3,0,0,1,.35.2c.11.32.18.64.27,1,.45,1.66.89,3.32,1.34,5,.06.25.19.38.46.31l3-.79a.27.27,0,0,0,.2-.34c-.06-.29-.13-.57-.21-.85-.52-1.95-1-3.9-1.57-5.85-.09-.36,0-.49.3-.57,2.19-.5,1.67-.93,2.27,1.24.69,2.51,1.35,5,2,7.55a4.58,4.58,0,0,1,.14.53.28.28,0,0,1-.17.35l-.42.15-12,3.2-.31.09a.28.28,0,0,1-.34-.21c0-.13-.1-.27-.14-.41q-1.16-4.31-2.29-8.61C38.26,136.35,38.23,136.21,38.17,136Z"/><path class="cls-16" d="M191.3,160.08c-.13,0-.17,0-.2,0a8.74,8.74,0,0,1-1.73-.93,4.67,4.67,0,0,1,.75-1.78c.67-1.35,1.36-2.68,2-4,.08-.17.16-.33.23-.5a.31.31,0,0,0-.13-.46,17.61,17.61,0,0,0-2.35-1.15,2.65,2.65,0,0,0-.59.95c-.81,1.56-1.6,3.13-2.4,4.7-.18.35-.26.37-.6.2a9.11,9.11,0,0,1-1.53-.84,3.79,3.79,0,0,1,.68-1.58c.57-1.19,1.19-2.36,1.79-3.54.16-.32.31-.65.5-1.05l-3.06-1.56a.29.29,0,0,0-.38.14,7.24,7.24,0,0,0-.35.68q-1.26,2.44-2.5,4.9c-.12.23-.23.46-.36.68a.33.33,0,0,1-.46.15,1.21,1.21,0,0,1-.2-.09,7.66,7.66,0,0,1-1.42-.81,4.19,4.19,0,0,1,.63-1.49c1.15-2.29,2.33-4.57,3.49-6.86l.36-.68A.31.31,0,0,1,184,145l.39.19,10.78,5.5a2.77,2.77,0,0,1,.48.26c.11.08.23.19.14.37s-.13.26-.19.4l-4.05,7.93C191.48,159.79,191.4,159.91,191.3,160.08Z"/><path class="cls-16" d="M115.09,37.12c0,.08,0,.22,0,.37.13.5,0,.63-.56.7l-2.18.26c-1.35.16-2.7.31-4.05.48-.37,0-.46.14-.42.48.07.73.16,1.46.26,2.19,0,.34.15.41.53.37l2.51-.31,3.39-.4c.37,0,.43,0,.51.4s.1.66.13,1c.08.83.09.85-.75.94-1.68.19-3.35.41-5,.62l-.44,0c-.42.07-.51.16-.47.57s.13,1.09.19,1.64c0,.15,0,.29.07.44.1,1.25,0,1.14,1.34,1,2-.21,3.93-.48,5.89-.72.46,0,.49,0,.57.43s.13,1,.17,1.53a.27.27,0,0,1-.26.3l-1.42.2-7.42.91c-.26,0-.51.05-.77.06s-.45,0-.5-.41c-.14-1-.27-2-.4-3.05-.36-2.92-.71-5.83-1.07-8.74,0-.15,0-.29,0-.44-.08-.93-.13-.95.87-1.07,2.69-.31,5.39-.65,8.08-1,1.12-.15,1.11-.16,1.19.92C115.07,36.9,115.07,37,115.09,37.12Z"/><path class="cls-16" d="M198.49,103.77c-.87.16-1.66.3-2.45.46-.4.08-.47.19-.39.6l1,5.51c0,.15.07.29.09.44a.32.32,0,0,1-.28.39l-.86.19c-1.07.21-1.07.2-1.27-.87-.31-1.58-.61-3.17-.92-4.75,0-.22-.1-.43-.16-.64a.31.31,0,0,0-.4-.26c-.33,0-.65.12-1,.19-.61.12-1.23.23-1.83.37s-.49.13-.41.58c.28,1.48.57,3,.85,4.43.15.76.29,1.52.43,2.27.05.22-.07.34-.25.42a.45.45,0,0,1-.11,0c-2.27.35-1.72.75-2.17-1.43-.5-2.41-.95-4.83-1.42-7.24,0-.14-.07-.28-.09-.43-.14-.81-.13-.83.7-1l11.88-2.31a3.33,3.33,0,0,1,.54-.07.34.34,0,0,1,.25.16,5.15,5.15,0,0,1,.19.75c.52,2.7,1,5.4,1.57,8.1a1.7,1.7,0,0,1,0,.22c.1.68.07.77-.62.85-.49.06-1.06.48-1.46.11s-.27-.88-.36-1.34q-.51-2.59-1-5.18C198.6,104.17,198.56,104,198.49,103.77Z"/><path class="cls-16" d="M176,71.52l1.52,1.72a.39.39,0,0,1,0,.58c-.09.11-.18.23-.26.35a2.58,2.58,0,0,0-.06,3,4.58,4.58,0,0,0,1.08,1.24,2.06,2.06,0,0,0,1.66.41,1.32,1.32,0,0,0,1.13-1.4,3.72,3.72,0,0,0-.29-1.17c-.29-.71-.57-1.43-.83-2.15a7.89,7.89,0,0,1-.57-2.45,3.6,3.6,0,0,1,5.39-3.29,4.43,4.43,0,0,1,.65.41,8,8,0,0,1,2.67,3.82A3.82,3.82,0,0,1,187,76.8c-.22.21-.36.21-.55,0L185,75c.17-.27.33-.51.47-.77a1.65,1.65,0,0,0,.16-1.37,3.85,3.85,0,0,0-1.72-2.2.87.87,0,0,0-.19-.1,1.06,1.06,0,0,0-1.54,1.09,4.86,4.86,0,0,0,.28,1.17c.26.72.55,1.43.82,2.16a9.34,9.34,0,0,1,.6,2.22A3.73,3.73,0,0,1,182,80.9a3.86,3.86,0,0,1-4.07.25,3.75,3.75,0,0,1-.66-.4,8.81,8.81,0,0,1-2.92-3.92,4.31,4.31,0,0,1,.51-4.09A4.75,4.75,0,0,1,176,71.52Z"/><path class="cls-16" d="M171.77,182.92a14.34,14.34,0,0,1-1.94,1.75.92.92,0,0,1-.54-.41c-1.64-1.88-3.28-3.76-4.9-5.66-.45-.53-.87-1.09-1.27-1.66a3.93,3.93,0,0,1,.08-4.72,8.75,8.75,0,0,1,3.32-2.84,3.93,3.93,0,0,1,4.61.55,15.68,15.68,0,0,1,1.48,1.46c1.66,1.87,3.29,3.76,4.93,5.64.09.11.19.22.27.34a.27.27,0,0,1,0,.39c-.55.49-1.1,1-1.66,1.45a.27.27,0,0,1-.39,0l-.51-.58L171,173.7c-.44-.49-.88-1-1.36-1.43a2.14,2.14,0,0,0-2.64-.33,4,4,0,0,0-1.47,1.3,1.83,1.83,0,0,0-.06,2.17,17.28,17.28,0,0,0,1.28,1.65c1.43,1.67,2.88,3.33,4.32,5Z"/><path class="cls-16" d="M200.53,136.19c-.6,2.25-1.12,4.42-1.81,6.54a4.45,4.45,0,0,1-.3.71,3.52,3.52,0,0,1-2.87,2,5.06,5.06,0,0,1-2.88-.55,3.86,3.86,0,0,1-2.11-3.9,14.33,14.33,0,0,1,.42-2.15c.12-.5.25-1,.38-1.49.17-.67.17-.68-.53-.87l-3-.8c-.32-.08-.64-.16-1-.26a.35.35,0,0,1-.26-.42c0-.07,0-.15,0-.22a12.87,12.87,0,0,1,.6-2,4.86,4.86,0,0,1,2,.4c3.4.89,6.79,1.81,10.19,2.72C199.78,136,200.1,136.06,200.53,136.19Z"/><path class="cls-16" d="M114.28,194.73c-.3-.09-.44.12-.62.22a3.36,3.36,0,0,1-3.73-.32,4,4,0,0,1-1.7-3,6,6,0,0,1,.17-2.19,4.18,4.18,0,0,1,3.85-3.24,4.35,4.35,0,0,1,4.4,2.52,6.48,6.48,0,0,1,.56,2.24,15.07,15.07,0,0,1-.52,5.34,8.33,8.33,0,0,1-.52,1.33,4.63,4.63,0,0,1-5.68,2.36,3.48,3.48,0,0,1-2.48-3.18c0-.21.08-.35.3-.35q.72,0,1.44,0a1.52,1.52,0,0,1,.64.06c.23.09.18.37.26.57a1.5,1.5,0,0,0,2.17.79,2,2,0,0,0,.88-1A6.19,6.19,0,0,0,114.28,194.73Z"/><path class="cls-16" d="M123.51,192.31a4.16,4.16,0,0,1,1.76-1.12,3.73,3.73,0,0,1,3.86,1.27,5.24,5.24,0,0,1,.43,5.88,4.48,4.48,0,0,1-7.25.16,5.11,5.11,0,0,1-.77-1.46,13.79,13.79,0,0,1-.52-6.95,4.53,4.53,0,0,1,2.94-3.57,4.64,4.64,0,0,1,2.71-.2,3.62,3.62,0,0,1,2.68,2.64.29.29,0,0,1-.25.41c-.57.12-1.15.22-1.73.33a.41.41,0,0,1-.53-.25,1.76,1.76,0,0,0-.09-.2,1.5,1.5,0,0,0-2.62-.19,2,2,0,0,0-.37.67A7.94,7.94,0,0,0,123.51,192.31Z"/><path class="cls-16" d="M68,172.37,67.17,171l-.57-1a5.09,5.09,0,0,1,4.8-1,6.24,6.24,0,0,1,4.52,5.31,5.43,5.43,0,0,1-.46,3,9.29,9.29,0,0,1-4,4.52,5.72,5.72,0,0,1-6.34-.29,6.65,6.65,0,0,1-2.13-2.19,4.9,4.9,0,0,1-.31-4.65c.12-.27.26-.32.51-.2l1.37.71a2.28,2.28,0,0,1,.63.41c.19.24-.07.48-.12.72a3.13,3.13,0,0,0,4.3,3.49,7.48,7.48,0,0,0,3.94-4.65,2.8,2.8,0,0,0-1.05-3.05,2.76,2.76,0,0,0-3-.45C68.82,171.94,68.44,172.16,68,172.37Z"/><path class="cls-16" d="M135,199.06a5.82,5.82,0,0,1,.33-3.22,20.11,20.11,0,0,1,1.53-3c.5-.86,1-1.73,1.46-2.59a3.06,3.06,0,0,0,.38-1.7,2.42,2.42,0,0,0-.07-.54,1.68,1.68,0,0,0-1.76-1.36,1.79,1.79,0,0,0-1.76,1.76c0,.31.21.7-.15.91a2.86,2.86,0,0,1-.85.2l-.21,0c-1.47.31-1.4.26-1.39-1.14a3.38,3.38,0,0,1,1.36-2.77,5.56,5.56,0,0,1,4.11-1.23,3.79,3.79,0,0,1,3.33,3.67,6.29,6.29,0,0,1-.73,3.19c-.36.72-.8,1.4-1.2,2.1s-.68,1.22-1,1.83c-.07.12-.16.27,0,.39s.29.06.42,0c1.13-.31,2.26-.65,3.39-1s1-.43,1.36.79.56,1.21-.87,1.61l-6.88,2A1.12,1.12,0,0,1,135,199.06Z"/><path class="cls-16" d="M54.53,144.27c.14.24.26.43.36.62l3.69,7.24c.07.14.13.27.2.4a.34.34,0,0,1-.13.47c-.12.08-.25.14-.38.21l-11,5.58c-.13.07-.27.12-.45.2a12.56,12.56,0,0,1-1.19-2.19c-.08-.15,0-.29.16-.36s.52-.28.78-.41l8-4.09a8.35,8.35,0,0,0,.77-.43.31.31,0,0,0,.09-.28,4.53,4.53,0,0,0-.28-.59L53,146.33c-.13-.26-.26-.53-.38-.79a.28.28,0,0,1,.11-.38A16.41,16.41,0,0,1,54.53,144.27Z"/><path class="cls-16" d="M196.47,118.88h-5.29a.32.32,0,0,0-.35.33c0,.26,0,.51,0,.77l-.12,4.85c0,.18,0,.36,0,.55s-.11.35-.33.35c-.55,0-1.11,0-1.66,0a.27.27,0,0,1-.26-.29,5.15,5.15,0,0,1,0-.55c0-2.61.07-5.22.11-7.82,0-.22,0-.44,0-.66a.33.33,0,0,1,.36-.33h.55l12,.22h.33a.33.33,0,0,1,.35.34,1.62,1.62,0,0,1,0,.22,11.16,11.16,0,0,1-.11,2.08A4.89,4.89,0,0,1,200,119c-1.18,0-2.35,0-3.53,0Z"/><path class="cls-16" d="M80.22,187.38a3.81,3.81,0,1,1,7.62-.09,3.81,3.81,0,1,1-7.62.09Z"/><path class="cls-16" d="M152.53,186.66a3.84,3.84,0,0,1,3.76-3.82,3.78,3.78,0,0,1,3.87,3.81,3.73,3.73,0,0,1-3.86,3.82A3.77,3.77,0,0,1,152.53,186.66Z"/><path class="cls-16" d="M104.45,185.09c-.53,1.82-1,3.55-1.51,5.27-.68,2.36-1.35,4.72-2,7.08-.06.21-.13.42-.2.63a.28.28,0,0,1-.35.18c-.64-.17-1.28-.34-1.91-.53-.25-.08-.29-.27-.21-.53.21-.7.39-1.41.59-2.11.59-2,1.17-4.08,1.76-6.13a1,1,0,0,0,.07-.7,4.67,4.67,0,0,0-1.08.34c-.39.08-.77.22-1.17.3s-.79.09-1.13.13c-.24-.26-.1-.47-.06-.67a6.84,6.84,0,0,1,.21-.74c.06-.21.13-.41.2-.62s.19-.21.34-.24c.53-.13,1.07-.24,1.59-.4a5.26,5.26,0,0,0,2.52-1.5.68.68,0,0,1,.78-.25Z"/><path class="cls-17" d="M36.58,113a1.88,1.88,0,0,0,0-.19,6.88,6.88,0,0,1,.22-1.63c.54-.29,1.08,0,1.61,0,3,.23,5.92.49,8.88.74l2.63.23c.43,0,.53.15.5.55-.06.66-.13,1.31-.2,2a.29.29,0,0,1-.29.27,2.14,2.14,0,0,1-.44,0l-5.92-.54c-2-.18-3.95-.34-5.92-.51-.22,0-.44,0-.66,0s-.43-.13-.43-.49C36.57,113.16,36.58,113,36.58,113Z"/><path class="cls-16" d="M77.85,63.21a.69.69,0,0,1-.35.48,10.39,10.39,0,0,1-1.67,1.2,5.23,5.23,0,0,1-1.35-1.54c-2.16-2.73-4.29-5.48-6.43-8.22-.23-.29-.44-.58-.64-.84a.8.8,0,0,1,.37-.46,10.51,10.51,0,0,1,1.67-1.22,5.54,5.54,0,0,1,1.34,1.55c2.16,2.73,4.29,5.48,6.43,8.22C77.45,62.66,77.66,63,77.85,63.21Z"/><path class="cls-17" d="M138.42,38.42c-.22,1-.44,2.08-.67,3.12-.65,3.09-1.31,6.17-2,9.26,0,.1,0,.21-.06.32-.07.26-.21.35-.5.29l-1.29-.29c-1.2-.26-1-.13-.78-1.28.79-3.84,1.62-7.68,2.44-11.52,0-.18.1-.35.14-.53a.31.31,0,0,1,.42-.24l1.94.4C138.34,38,138.48,38.14,138.42,38.42Z"/><path class="cls-18" d="M128,44.83c0,.1,0,.24,0,.3s-.19,0-.23-.11a2.58,2.58,0,0,1-.14-.39Z"/><path class="cls-19" d="M122.15,67.64a2.13,2.13,0,0,1,.6.83q4.2,7.5,8.39,15l29.91,53.45q.34.62.66,1.26c.07.15,0,.31-.16.32a10.17,10.17,0,0,1-1.1,0l-28.1-.17c-.55,0-1.1,0-1.65,0-.39,0-.5.14-.52.55s0,.59,0,.88q.06,3.36.11,6.72c0,1,0,1-.94,1h-6.06a4.93,4.93,0,0,1-.55,0,.37.37,0,0,1-.34-.37c0-.37,0-.73,0-1.1q-.06-15.87-.12-31.73Q122.16,91.63,122,69A3.19,3.19,0,0,1,122.15,67.64Z"/><path class="cls-20" d="M72.88,147.36c.38-1,32.31-57.51,33-58.43.21,0,.2.18.2.32s0,.52,0,.77q0,9.53.06,19.06a4.22,4.22,0,0,1-.6,2.17q-7.44,12.81-14.84,25.64L90,138.08c.09.31.3.26.47.27h1l13.33,0c1.27,0,1.21-.06,1.21,1.19,0,2.24,0,4.48,0,6.72,0,.26,0,.51,0,.77a.3.3,0,0,1-.28.29c-.36,0-.73,0-1.09,0l-21.15,0-9.36,0Z"/><path class="cls-21" d="M118.56,67.81c0,.39,0,.78,0,1.17q0,16.36,0,32.72,0,22.14,0,44.28c0,.37,0,.74,0,1.1s-.1.49-.54.51h-.78l-5.94,0h-.66c-.57,0-.65-.1-.68-.63V83.66a3.1,3.1,0,0,1,.36-1.57c2.57-4.58,5.11-9.18,7.66-13.76.1-.19.23-.37.34-.56Z"/><path class="cls-22" d="M184.88,165.5c-.86,1.12-1.66,2.22-2.56,3.22a1.52,1.52,0,0,1-1.8.41,1.65,1.65,0,0,1-.82-2.53c.68-1,1.47-2,2.24-3a.29.29,0,0,1,.47-.05Z"/><path class="cls-23" d="M160.7,53.22a2.33,2.33,0,0,1-.53-.2,31.22,31.22,0,0,1-3.29-1.73.32.32,0,0,1-.15-.46q.68-1.26,1.38-2.49c.1-.18.28-.2.48-.09,1,.58,2,1.14,3,1.72a2.74,2.74,0,0,1,.58.5,1.48,1.48,0,0,1,.15,1.74A1.77,1.77,0,0,1,160.7,53.22Z"/><path class="cls-24" d="M59.36,160.12a3.67,3.67,0,0,1,3.51,5.07,4.48,4.48,0,0,1-.62,1,7.48,7.48,0,0,1-2.84,2.21,3.71,3.71,0,0,1-5.28-2.8,2.87,2.87,0,0,1,.31-2,7.05,7.05,0,0,1,4.38-3.43A1.94,1.94,0,0,1,59.36,160.12Z"/><path class="cls-25" d="M166.81,64a3.55,3.55,0,0,1,.52-1.85,7.73,7.73,0,0,1,2.53-2.71,3.68,3.68,0,0,1,5.42,1.47,3,3,0,0,1,.21,2.55,6.77,6.77,0,0,1-3.71,4A3.63,3.63,0,0,1,166.81,64Z"/><path class="cls-24" d="M45.72,105.89a7.69,7.69,0,0,1-3.38-.85A3.66,3.66,0,0,1,41,99.59a3.45,3.45,0,0,1,3.23-1.53,7.91,7.91,0,0,1,3.09.7,5.14,5.14,0,0,1,.77.41,3.55,3.55,0,0,1,1.57,3.91,3.62,3.62,0,0,1-3.17,2.8A6.57,6.57,0,0,1,45.72,105.89Z"/><path class="cls-24" d="M55.46,86.35a1.18,1.18,0,0,1-.64-.24l-6.58-3.79-.38-.23c-.18-.11-.26-.26-.14-.45.45-.76.88-1.53,1.37-2.26a2.65,2.65,0,0,1,3.35-1.17,9.64,9.64,0,0,1,4,2.39,2.45,2.45,0,0,1,.55,3A18.79,18.79,0,0,1,55.46,86.35Z"/><path class="cls-26" d="M189.22,96.39A2.45,2.45,0,0,1,186.81,95a21,21,0,0,1-1.11-3,.28.28,0,0,1,.17-.36,3.13,3.13,0,0,1,.51-.19L193.45,89l.42-.13a.34.34,0,0,1,.45.2,20.09,20.09,0,0,1,.9,3,2.47,2.47,0,0,1-.74,2.31,4.87,4.87,0,0,1-1,.73,12,12,0,0,1-4,1.29A2.53,2.53,0,0,1,189.22,96.39Z"/><path class="cls-27" d="M193.91,137.28l3.26.85a.37.37,0,0,1,.3.49,18.11,18.11,0,0,1-.81,2.72,1.78,1.78,0,0,1-2,1.17,1.8,1.8,0,0,1-1.59-1.69,3.23,3.23,0,0,1,0-.44A12.46,12.46,0,0,1,193.91,137.28Z"/><path class="cls-28" d="M114.41,190.89a3,3,0,0,1-.34,1.62,1.69,1.69,0,0,1-3.17-.4,4.58,4.58,0,0,1,.17-2.59,1.57,1.57,0,0,1,1.37-1.11,1.63,1.63,0,0,1,1.5.74A2.51,2.51,0,0,1,114.41,190.89Z"/><path class="cls-29" d="M127.67,196a4.71,4.71,0,0,1-.07.73,1.6,1.6,0,0,1-2.49,1,2.2,2.2,0,0,1-.82-1,3.86,3.86,0,0,1-.2-2.37,1.7,1.7,0,0,1,3.17-.41A4.16,4.16,0,0,1,127.67,196Z"/><path class="cls-15" d="M128.52,92.68a2.85,2.85,0,0,1,.56.92l9.1,17.59,8.79,17c.16.29.31.58.46.88s.08.5-.37.52h-.33l-15.19-.08c-1.37,0-1.25.09-1.32-1.23l-.78-14.61c-.11-2-.19-4-.3-6-.18-3.59-.38-7.18-.57-10.77-.07-1.32-.12-2.64-.18-4C128.39,92.84,128.46,92.78,128.52,92.68Z"/></g></g></svg>