<svg xmlns="http://www.w3.org/2000/svg" xmlns:xlink="http://www.w3.org/1999/xlink" viewBox="0 0 328.23 268.01"><defs><style>.cls-1{fill:#cfcdb8;}.cls-1,.cls-10,.cls-11,.cls-12,.cls-13,.cls-14,.cls-15,.cls-16,.cls-17,.cls-18,.cls-19,.cls-2,.cls-20,.cls-21,.cls-22,.cls-23,.cls-24,.cls-25,.cls-26,.cls-27,.cls-28,.cls-29,.cls-3,.cls-30,.cls-31,.cls-32,.cls-33,.cls-34,.cls-35,.cls-36,.cls-37,.cls-38,.cls-39,.cls-4,.cls-40,.cls-5,.cls-6,.cls-7,.cls-8,.cls-9{fill-rule:evenodd;}.cls-2{fill:#252626;}.cls-3,.cls-41,.cls-43{fill:#fff;}.cls-4{fill:url(#Degradado_sin_nombre_27);}.cls-5{fill:url(#Degradado_sin_nombre_27-2);}.cls-6{fill:url(#Degradado_sin_nombre_27-3);}.cls-7{fill:url(#Degradado_sin_nombre_27-4);}.cls-8{fill:url(#Degradado_sin_nombre_27-5);}.cls-9{fill:url(#Degradado_sin_nombre_27-6);}.cls-10{fill:url(#Degradado_sin_nombre_27-7);}.cls-11{fill:url(#Degradado_sin_nombre_27-8);}.cls-12{fill:url(#Degradado_sin_nombre_27-9);}.cls-13{fill:url(#Degradado_sin_nombre_27-10);}.cls-14{fill:url(#Degradado_sin_nombre_27-11);}.cls-15{fill:url(#Degradado_sin_nombre_27-12);}.cls-16{fill:url(#Degradado_sin_nombre_27-13);}.cls-17{fill:url(#Degradado_sin_nombre_27-14);}.cls-18{fill:url(#Degradado_sin_nombre_27-15);}.cls-19{fill:url(#Degradado_sin_nombre_27-16);}.cls-20{fill:url(#Degradado_sin_nombre_27-17);}.cls-21{fill:url(#Degradado_sin_nombre_27-18);}.cls-22{fill:url(#Degradado_sin_nombre_27-19);}.cls-23{fill:url(#Degradado_sin_nombre_27-20);}.cls-24{fill:url(#Degradado_sin_nombre_27-21);}.cls-25{fill:url(#Degradado_sin_nombre_27-22);}.cls-26{fill:url(#Degradado_sin_nombre_27-23);}.cls-27{fill:url(#Degradado_sin_nombre_27-24);}.cls-28{fill:url(#Degradado_sin_nombre_27-25);}.cls-29{fill:url(#Degradado_sin_nombre_27-26);}.cls-30{fill:url(#Degradado_sin_nombre_27-27);}.cls-31{fill:url(#Degradado_sin_nombre_27-28);}.cls-32{fill:url(#Degradado_sin_nombre_27-29);}.cls-33{fill:url(#Degradado_sin_nombre_27-30);}.cls-34{fill:url(#Degradado_sin_nombre_27-31);}.cls-35{fill:url(#Degradado_sin_nombre_27-32);}.cls-36{fill:url(#Degradado_sin_nombre_27-33);}.cls-37{fill:url(#Degradado_sin_nombre_27-34);}.cls-38{fill:url(#Degradado_sin_nombre_27-35);}.cls-39,.cls-47{fill:#343434;}.cls-40{fill:#808181;}.cls-41{font-size:11.56px;}.cls-41,.cls-43,.cls-44{font-family:TimesNewRomanPS-BoldMT, Times New Roman;font-weight:700;}.cls-42{letter-spacing:-0.02em;}.cls-43{font-size:26.28px;}.cls-44{font-size:16.94px;}.cls-45{fill:url(#linear-gradient);}.cls-46{fill:url(#linear-gradient-5);}</style><linearGradient id="Degradado_sin_nombre_27" x1="191.16" y1="236.58" x2="204.48" y2="236.58" gradientUnits="userSpaceOnUse"><stop offset="0.04" stop-color="#bcbba7"/><stop offset="0.1" stop-color="#c5c4af"/><stop offset="0.29" stop-color="#dddcc5"/><stop offset="0.5" stop-color="#efedd5"/><stop offset="0.73" stop-color="#f9f7de"/><stop offset="1" stop-color="#fcfae1"/></linearGradient><linearGradient id="Degradado_sin_nombre_27-2" x1="198.01" y1="252.43" x2="223.51" y2="252.43" xlink:href="#Degradado_sin_nombre_27"/><linearGradient id="Degradado_sin_nombre_27-3" x1="208.55" y1="227.8" x2="220.23" y2="227.8" xlink:href="#Degradado_sin_nombre_27"/><linearGradient id="Degradado_sin_nombre_27-4" x1="215.86" y1="240.66" x2="241.35" y2="240.66" xlink:href="#Degradado_sin_nombre_27"/><linearGradient id="Degradado_sin_nombre_27-5" x1="223.61" y1="216.97" x2="234.78" y2="216.97" xlink:href="#Degradado_sin_nombre_27"/><linearGradient id="Degradado_sin_nombre_27-6" x1="231.98" y1="227.43" x2="257.78" y2="227.43" xlink:href="#Degradado_sin_nombre_27"/><linearGradient id="Degradado_sin_nombre_27-7" x1="236" y1="204.26" x2="246.5" y2="204.26" xlink:href="#Degradado_sin_nombre_27"/><linearGradient id="Degradado_sin_nombre_27-8" x1="245.75" y1="211.18" x2="269.46" y2="211.18" xlink:href="#Degradado_sin_nombre_27"/><linearGradient id="Degradado_sin_nombre_27-9" x1="245.12" y1="189.27" x2="255.38" y2="189.27" xlink:href="#Degradado_sin_nombre_27"/><linearGradient id="Degradado_sin_nombre_27-10" x1="254.87" y1="195.16" x2="276.76" y2="195.16" xlink:href="#Degradado_sin_nombre_27"/><linearGradient id="Degradado_sin_nombre_27-11" x1="252.03" y1="175.9" x2="261.79" y2="175.9" xlink:href="#Degradado_sin_nombre_27"/><linearGradient id="Degradado_sin_nombre_27-12" x1="262.34" y1="179.22" x2="280.86" y2="179.22" xlink:href="#Degradado_sin_nombre_27"/><linearGradient id="Degradado_sin_nombre_27-13" x1="256.56" y1="162.82" x2="265.54" y2="162.82" xlink:href="#Degradado_sin_nombre_27"/><linearGradient id="Degradado_sin_nombre_27-14" x1="266.05" y1="165.88" x2="283.1" y2="165.88" xlink:href="#Degradado_sin_nombre_27"/><linearGradient id="Degradado_sin_nombre_27-15" x1="265.32" y1="152.33" x2="273.93" y2="152.33" xlink:href="#Degradado_sin_nombre_27"/><linearGradient id="Degradado_sin_nombre_27-16" x1="171.78" y1="242.88" x2="187.33" y2="242.88" xlink:href="#Degradado_sin_nombre_27"/><linearGradient id="Degradado_sin_nombre_27-17" x1="177.6" y1="261.49" x2="202.84" y2="261.49" xlink:href="#Degradado_sin_nombre_27"/><linearGradient id="Degradado_sin_nombre_27-18" x1="123.76" y1="236.58" x2="137.08" y2="236.58" xlink:href="#Degradado_sin_nombre_27"/><linearGradient id="Degradado_sin_nombre_27-19" x1="104.73" y1="252.43" x2="130.22" y2="252.43" xlink:href="#Degradado_sin_nombre_27"/><linearGradient id="Degradado_sin_nombre_27-20" x1="108.01" y1="227.8" x2="119.69" y2="227.8" xlink:href="#Degradado_sin_nombre_27"/><linearGradient id="Degradado_sin_nombre_27-21" x1="86.89" y1="240.66" x2="112.38" y2="240.66" xlink:href="#Degradado_sin_nombre_27"/><linearGradient id="Degradado_sin_nombre_27-22" x1="93.46" y1="216.97" x2="104.63" y2="216.97" xlink:href="#Degradado_sin_nombre_27"/><linearGradient id="Degradado_sin_nombre_27-23" x1="70.46" y1="227.43" x2="96.26" y2="227.43" xlink:href="#Degradado_sin_nombre_27"/><linearGradient id="Degradado_sin_nombre_27-24" x1="81.73" y1="204.26" x2="92.24" y2="204.26" xlink:href="#Degradado_sin_nombre_27"/><linearGradient id="Degradado_sin_nombre_27-25" x1="58.77" y1="211.18" x2="82.49" y2="211.18" xlink:href="#Degradado_sin_nombre_27"/><linearGradient id="Degradado_sin_nombre_27-26" x1="72.86" y1="189.27" x2="83.12" y2="189.27" xlink:href="#Degradado_sin_nombre_27"/><linearGradient id="Degradado_sin_nombre_27-27" x1="51.48" y1="195.16" x2="73.37" y2="195.16" xlink:href="#Degradado_sin_nombre_27"/><linearGradient id="Degradado_sin_nombre_27-28" x1="66.45" y1="175.9" x2="76.2" y2="175.9" xlink:href="#Degradado_sin_nombre_27"/><linearGradient id="Degradado_sin_nombre_27-29" x1="47.38" y1="179.22" x2="65.9" y2="179.22" xlink:href="#Degradado_sin_nombre_27"/><linearGradient id="Degradado_sin_nombre_27-30" x1="62.7" y1="162.82" x2="71.68" y2="162.82" xlink:href="#Degradado_sin_nombre_27"/><linearGradient id="Degradado_sin_nombre_27-31" x1="45.13" y1="165.88" x2="62.19" y2="165.88" xlink:href="#Degradado_sin_nombre_27"/><linearGradient id="Degradado_sin_nombre_27-32" x1="54.31" y1="152.33" x2="62.92" y2="152.33" xlink:href="#Degradado_sin_nombre_27"/><linearGradient id="Degradado_sin_nombre_27-33" x1="140.91" y1="242.88" x2="156.46" y2="242.88" xlink:href="#Degradado_sin_nombre_27"/><linearGradient id="Degradado_sin_nombre_27-34" x1="125.4" y1="261.49" x2="150.64" y2="261.49" xlink:href="#Degradado_sin_nombre_27"/><linearGradient id="Degradado_sin_nombre_27-35" x1="157.4" y1="260.34" x2="170.84" y2="260.34" xlink:href="#Degradado_sin_nombre_27"/><linearGradient id="linear-gradient" x1="271.97" y1="108.52" x2="304.85" y2="108.52" gradientUnits="userSpaceOnUse"><stop offset="0" stop-color="#0e121b"/><stop offset="0.53" stop-color="#2f353c"/><stop offset="1" stop-color="#363f47"/></linearGradient><linearGradient id="linear-gradient-5" x1="18.22" y1="108.52" x2="58.13" y2="108.52" xlink:href="#linear-gradient"/></defs><g id="Capa_2" data-name="Capa 2"><g id="Capa_1-2" data-name="Capa 1"><path class="cls-1" d="M255.32,47.38c2.68,30.26,1.12,61.19-8.85,90.11-13.35,38.67-39.55,67.4-73.73,89.11l-8.62,5.47-8.63-5.47c-34.17-21.71-60.37-50.44-73.72-89.11-10-28.92-11.53-59.85-8.86-90.11L73.65,39l7.28-4.17c50.95-29.24,115.43-29.24,166.38,0L254.59,39l.73,8.36Zm-11.65,1c2.53,28.6,1.17,57.94-8.26,85.27-12.48,36.16-37,62.79-68.94,83.06l-2.35,1.49-2.35-1.49c-31.92-20.27-56.46-46.9-68.94-83.06C83.4,106.34,82,77,84.57,48.4l.2-2.27,2-1.14c47.35-27.17,107.39-27.17,154.74,0l2,1.14.2,2.27Z"/><path class="cls-2" d="M238.59,49.25c-45.6-26-103.34-26-148.94,0-2.42,27.73-1.1,56.25,8,82.75,12,34.88,35.7,60.53,66.43,80.14,30.73-19.61,54.4-45.26,66.43-80.14,9.14-26.5,10.46-55,8-82.75Z"/><path class="cls-3" d="M98.59,116.73q1.65,6.87,4,13.6C113.82,163,135.71,187.27,164.12,206c28.41-18.75,50.3-43,61.57-75.69,1.55-4.48,2.86-9,4-13.6L164.12,90.07,98.59,116.73Z"/><path class="cls-4" d="M201.88,222.32c4.71,19.51,3.42,20-7.25,28.52-5.71-10.35-5.09-13.69,7.25-28.52Z"/><path class="cls-5" d="M223.51,255c-14.07-10.59-14.93-9.73-25.5-4.11,6.35,8.2,9.26,8.86,25.5,4.11Z"/><path class="cls-6" d="M218.52,215.6c3.35,17.05,2.22,17.44-7.32,24.4-4.56-9.16-3.9-12,7.32-24.4Z"/><path class="cls-7" d="M241.35,243.27c-14.06-10.59-14.93-9.73-25.49-4.11,6.34,8.2,9.25,8.86,25.49,4.11Z"/><path class="cls-8" d="M230.45,204.29C237,220.36,236,221,228,229.65c-6.25-8.11-6.16-11.05,2.45-25.36Z"/><path class="cls-9" d="M257.78,227.1c-15.85-7.66-16.53-6.65-25.8.91,7.81,6.82,10.79,6.9,25.8-.91Z"/><path class="cls-10" d="M239,192.23c9.74,13.41,8.92,14.21,3.45,24.06-7.62-6.11-8.19-8.86-3.45-24.06Z"/><path class="cls-11" d="M269.46,207.44c-16.42-3.53-16.82-2.44-23.71,6.66,8.78,4.55,11.57,4,23.71-6.66Z"/><path class="cls-12" d="M246.56,178c10.85,11.69,10.15,12.54,6.06,22.58-8-5-8.85-7.52-6.06-22.58Z"/><path class="cls-13" d="M276.76,190c-16.1-1.49-16.35-.4-21.89,9.08,8.91,3.35,11.5,2.46,21.89-9.08Z"/><path class="cls-14" d="M252.22,166.15c11.1,9.19,10.57,10,8.1,19.5-7.73-3.49-8.81-5.68-8.1-19.5Z"/><path class="cls-15" d="M280.86,173.48c-14.58.57-14.69,1.57-18.52,10.72,8.38,1.94,10.59.84,18.52-10.72Z"/><path class="cls-16" d="M256.73,153.84c10.22,8.46,9.74,9.24,7.46,18-7.12-3.22-8.11-5.23-7.46-18Z"/><path class="cls-17" d="M283.1,160.59c-13.43.53-13.52,1.45-17.05,9.87,7.71,1.79,9.75.78,17.05-9.87Z"/><path class="cls-18" d="M271.28,142.73c4.28,12.55,3.46,13-3,19.2-4.38-6.46-4.17-8.7,3-19.2Z"/><path class="cls-19" d="M187.33,230c-.5,20.07-1.88,20.23-14.38,25.68-2.84-11.47-1.37-14.54,14.38-25.68Z"/><path class="cls-20" d="M202.84,268c-11.62-14.86-12.75-14.21-25.24-11.32,4.29,10.25,7.11,11.74,25.24,11.32Z"/><path class="cls-21" d="M126.36,222.32c-4.71,19.51-3.42,20,7.25,28.52,5.71-10.35,5.08-13.69-7.25-28.52Z"/><path class="cls-22" d="M104.73,255c14.07-10.59,14.93-9.73,25.49-4.11-6.34,8.2-9.25,8.86-25.49,4.11Z"/><path class="cls-23" d="M109.72,215.6C106.36,232.65,107.5,233,117,240c4.56-9.16,3.9-12-7.32-24.4Z"/><path class="cls-24" d="M86.89,243.27c14.06-10.59,14.93-9.73,25.49-4.11-6.34,8.2-9.25,8.86-25.49,4.11Z"/><path class="cls-25" d="M97.79,204.29c-6.6,16.07-5.56,16.68,2.45,25.36,6.25-8.11,6.16-11.05-2.45-25.36Z"/><path class="cls-26" d="M70.46,227.1c15.85-7.66,16.53-6.65,25.8.91-7.81,6.82-10.79,6.9-25.8-.91Z"/><path class="cls-27" d="M89.21,192.23c-9.75,13.41-8.92,14.21-3.46,24.06,7.63-6.11,8.2-8.86,3.46-24.06Z"/><path class="cls-28" d="M58.77,207.44C75.2,203.91,75.6,205,82.49,214.1c-8.79,4.55-11.57,4-23.72-6.66Z"/><path class="cls-29" d="M81.68,178c-10.85,11.69-10.15,12.54-6.06,22.58,8-5,8.84-7.52,6.06-22.58Z"/><path class="cls-30" d="M51.48,190c16.09-1.49,16.35-.4,21.89,9.08-8.91,3.35-11.5,2.46-21.89-9.08Z"/><path class="cls-31" d="M76,166.15c-11.1,9.19-10.58,10-8.1,19.5,7.73-3.49,8.81-5.68,8.1-19.5Z"/><path class="cls-32" d="M47.38,173.48c14.58.57,14.68,1.57,18.52,10.72-8.38,1.94-10.59.84-18.52-10.72Z"/><path class="cls-33" d="M71.51,153.84c-10.22,8.46-9.74,9.24-7.46,18,7.12-3.22,8.11-5.23,7.46-18Z"/><path class="cls-34" d="M45.13,160.59c13.43.53,13.53,1.45,17.06,9.87-7.72,1.79-9.75.78-17.06-9.87Z"/><path class="cls-35" d="M57,142.73c-4.28,12.55-3.46,13,3,19.2,4.38-6.46,4.17-8.7-3-19.2Z"/><path class="cls-36" d="M140.91,230c.49,20.07,1.87,20.23,14.38,25.68,2.84-11.47,1.37-14.54-14.38-25.68Z"/><path class="cls-37" d="M125.4,268c11.62-14.86,12.75-14.21,25.24-11.32-4.29,10.25-7.12,11.74-25.24,11.32Z"/><path class="cls-38" d="M164.12,253.62a6.72,6.72,0,1,1-6.72,6.72,6.72,6.72,0,0,1,6.72-6.72Z"/><path class="cls-1" d="M316.19,106.72l9.21,19.13H261.2V90.2h63.87l-8.88,16.52Zm-55-18.56v-1l.15-2.88h66.88l-2.06,3.84Zm65.18,39.73,1.85,3.85h-67v-3.85Z"/><polygon class="cls-1" points="12.04 106.72 2.83 125.85 67.04 125.85 67.04 108.03 67.04 90.2 3.16 90.2 12.04 106.72 12.04 106.72"/><path class="cls-1" d="M67,88.16V86.85L67,85.76v-.44c0-.3,0-.61,0-.91v-.09H0l2.07,3.84Z"/><polygon class="cls-1" points="1.85 127.89 0 131.74 67.04 131.74 67.04 127.89 1.85 127.89 1.85 127.89"/><path class="cls-1" d="M66.73,131.74c-.36-1.28-.71-2.56-1-3.85h7.78c.35,1.29.71,2.57,1.09,3.85Z"/><path class="cls-1" d="M65.17,125.85A205.77,205.77,0,0,1,59.7,90.2h7.54a199.85,199.85,0,0,0,5.69,35.65Z"/><path class="cls-1" d="M59.57,88.16A283.62,283.62,0,0,1,60.9,41.37l1-9.59,8.18-5.11C127-8.89,201.26-8.89,258.15,26.67l8.17,5.11,1,9.59a283.62,283.62,0,0,1,1.33,46.79h-7.53a274.31,274.31,0,0,0-.7-41.24l-1-11-9.6-5.51c-52.54-30.14-119-30.14-171.5,0l-9.6,5.51-1,11a274.31,274.31,0,0,0-.7,41.24Z"/><path class="cls-1" d="M268.54,90.2a206.74,206.74,0,0,1-5.47,35.65h-7.76A199.85,199.85,0,0,0,261,90.2Z"/><path class="cls-1" d="M262.55,127.89c-.33,1.29-.68,2.57-1,3.85h-7.82c.38-1.28.74-2.56,1.09-3.85Z"/><path class="cls-39" d="M120.53,115.89l-4.53,16h3.12l1.1-4.22h4.28l1.14,4.22h3.23l-4.47-16Zm1.08,5.78c.23-.93.5-2.24.71-3.24h.06c.21,1,.48,2.26.73,3.26l1,3.64h-3.4l1-3.66Z"/><path class="cls-40" d="M198.48,130.57a25,25,0,0,0,3.47.21c2.91,0,4.73-.53,5.83-1.52a4.47,4.47,0,0,0,1.49-3.35,4,4,0,0,0-3.18-4v-.09a3.72,3.72,0,0,0,2.6-3.52,3.6,3.6,0,0,0-1.59-3.07,7.54,7.54,0,0,0-4.49-1,23.24,23.24,0,0,0-4.13.34v16Zm3.11-13.92a6.68,6.68,0,0,1,1.38-.11c1.4,0,2.61.53,2.61,2.14,0,1.34-1.06,2.29-2.84,2.29h-1.15v-4.32Zm1.17,6.61c1.61,0,3.22.68,3.22,2.56s-1.44,2.61-3.14,2.61a6.9,6.9,0,0,1-1.25-.08v-5.09Z"/><polygon class="cls-3" points="106.02 51.65 116.34 50.99 126.67 50.33 126.67 51.65 126.67 52.96 116.34 52.3 106.02 51.65 106.02 51.65"/><polygon class="cls-3" points="220.44 51.65 210.12 50.99 199.79 50.33 199.79 51.65 199.79 52.96 210.12 52.3 220.44 51.65 220.44 51.65"/><text class="cls-41" transform="translate(131.47 52.52)">INSTITU<tspan class="cls-42" x="47.54" y="0">T</tspan><tspan x="55.04" y="0">O </tspan></text><text class="cls-43" transform="translate(117.18 77.68)">DOZER</text><text class="cls-44" transform="translate(271.55 114.12)">2019</text><path class="cls-45" d="M278.57,114.12H272v-.18a36.6,36.6,0,0,0,3.68-4.86,5.19,5.19,0,0,0,.65-2.44,2.05,2.05,0,0,0-.54-1.45,1.71,1.71,0,0,0-1.31-.57,2.17,2.17,0,0,0-2,1.27l-.31-.1a4.55,4.55,0,0,1,1.36-2.35,3.25,3.25,0,0,1,3.66-.37,2.88,2.88,0,0,1,1.1,1.09,2.56,2.56,0,0,1,.4,1.29,4.78,4.78,0,0,1-.61,2.24,21.64,21.64,0,0,1-3.65,4.27h2.42a5.33,5.33,0,0,0,1.16-.08,1,1,0,0,0,.45-.25,3.73,3.73,0,0,0,.45-.75h.3Z"/><path class="cls-45" d="M287.88,108.52a10.21,10.21,0,0,1-.47,3.13,4.24,4.24,0,0,1-.76,1.47,3.56,3.56,0,0,1-1.08.9,2.59,2.59,0,0,1-1.31.34,2.68,2.68,0,0,1-1.47-.42,4,4,0,0,1-1.16-1.18,5.78,5.78,0,0,1-.63-1.5,9.45,9.45,0,0,1-.36-2.61,10.57,10.57,0,0,1,.51-3.36,4,4,0,0,1,1.29-1.94,2.79,2.79,0,0,1,3.64,0,3.88,3.88,0,0,1,1.25,1.79A10,10,0,0,1,287.88,108.52Zm-2.55,0c0-2,0-3.11,0-3.43a3.12,3.12,0,0,0-.4-1.56.79.79,0,0,0-.67-.26.78.78,0,0,0-.56.19,1.74,1.74,0,0,0-.41,1c-.08.48-.11,2.19-.11,5.1a19.86,19.86,0,0,0,.16,3.2,1.41,1.41,0,0,0,.36.78.86.86,0,0,0,.61.2.75.75,0,0,0,.62-.26,2.62,2.62,0,0,0,.4-1.43Z"/><path class="cls-45" d="M294,102.67v9.18a5.75,5.75,0,0,0,.09,1.32.91.91,0,0,0,.38.47,1.86,1.86,0,0,0,.93.18h.26v.3h-5.91v-.3h.3a2.26,2.26,0,0,0,1-.17.83.83,0,0,0,.42-.45,5.21,5.21,0,0,0,.1-1.35V106a3.76,3.76,0,0,0-.07-1,.68.68,0,0,0-.28-.33.81.81,0,0,0-.46-.14,2.58,2.58,0,0,0-1,.27l-.15-.3,4.13-1.89Z"/><path class="cls-45" d="M297.5,114.36v-.24a7.05,7.05,0,0,0,2.33-.92,4.66,4.66,0,0,0,1.51-1.52,5.91,5.91,0,0,0,.79-2.07,6.07,6.07,0,0,1-.88.37,3.08,3.08,0,0,1-.75.1,2.8,2.8,0,0,1-2.13-.92,3.58,3.58,0,0,1-.85-2.51,4.55,4.55,0,0,1,.46-2,3.41,3.41,0,0,1,1.32-1.44,3.32,3.32,0,0,1,3.63.06,4,4,0,0,1,1.4,1.63,5.42,5.42,0,0,1,.52,2.43,7.16,7.16,0,0,1-.85,3.39,6.45,6.45,0,0,1-2.53,2.6A8.33,8.33,0,0,1,297.5,114.36Zm4.75-5.45c.05-.61.08-1.16.08-1.63a10.85,10.85,0,0,0-.34-2.8,2.19,2.19,0,0,0-.59-1.06.8.8,0,0,0-.54-.18.75.75,0,0,0-.65.35,3.78,3.78,0,0,0-.32,1.86,6.38,6.38,0,0,0,.55,3.17,1.08,1.08,0,0,0,1,.56A2,2,0,0,0,302.25,108.91Z"/><text class="cls-44" transform="translate(17.35 114.12)">SETS</text><path class="cls-46" d="M25.31,102.65l.09,3.74h-.34a3.79,3.79,0,0,0-1.18-2.26,3,3,0,0,0-2-.86,1.92,1.92,0,0,0-1.34.45,1.37,1.37,0,0,0-.49,1,1.3,1.3,0,0,0,.17.66,2.8,2.8,0,0,0,.77.77,17,17,0,0,0,1.8,1A7.89,7.89,0,0,1,25.42,109a3.1,3.1,0,0,1,.68,2,3.21,3.21,0,0,1-1.1,2.42,4,4,0,0,1-2.79,1,4.64,4.64,0,0,1-1-.11,7.13,7.13,0,0,1-1.18-.4,1.83,1.83,0,0,0-.66-.17.82.82,0,0,0-.45.17,1.18,1.18,0,0,0-.39.5h-.31v-4.23h.31a4.82,4.82,0,0,0,1.4,2.72,3.28,3.28,0,0,0,2.24.94,2.14,2.14,0,0,0,1.48-.5,1.55,1.55,0,0,0,.55-1.18,1.57,1.57,0,0,0-.21-.77,2.61,2.61,0,0,0-.64-.71,10.4,10.4,0,0,0-1.53-.87,13.4,13.4,0,0,1-2.2-1.28,4.06,4.06,0,0,1-1-1.18,3,3,0,0,1-.36-1.44,3,3,0,0,1,1-2.29,3.42,3.42,0,0,1,2.48-.94,4.16,4.16,0,0,1,1.06.13,5.82,5.82,0,0,1,.95.37,2.2,2.2,0,0,0,.78.27.44.44,0,0,0,.34-.13,1.55,1.55,0,0,0,.23-.64Z"/><path class="cls-46" d="M31.39,103.55v4.57h.23a1.75,1.75,0,0,0,1.54-.67,4.17,4.17,0,0,0,.62-2h.31v5.88h-.31a4.59,4.59,0,0,0-.42-1.58,1.82,1.82,0,0,0-.74-.82,2.83,2.83,0,0,0-1.23-.21v3.16a4.62,4.62,0,0,0,.08,1.13.68.68,0,0,0,.29.34,1.4,1.4,0,0,0,.7.13h.67A3.6,3.6,0,0,0,37,110.56h.31l-.51,3.56h-9.7v-.3h.38a1.5,1.5,0,0,0,.78-.18.65.65,0,0,0,.33-.39,3.43,3.43,0,0,0,.09-1v-7.38a5.74,5.74,0,0,0,0-.94.79.79,0,0,0-.3-.45,1.46,1.46,0,0,0-.86-.23h-.38v-.3h9.4v3.31h-.32a4,4,0,0,0-.67-1.74,2.57,2.57,0,0,0-1.23-.78,6.63,6.63,0,0,0-1.74-.15Z"/><path class="cls-46" d="M48.77,102.91v3h-.3a4.83,4.83,0,0,0-.58-1.51,2.31,2.31,0,0,0-.89-.73,2.79,2.79,0,0,0-1.1-.15h-.84v8.66a3.55,3.55,0,0,0,.1,1.07.89.89,0,0,0,.37.38,1.51,1.51,0,0,0,.76.16h.37v.3H40.79v-.3h.37a1.48,1.48,0,0,0,.78-.18.7.7,0,0,0,.34-.39,3.43,3.43,0,0,0,.09-1v-8.66h-.81a2.35,2.35,0,0,0-1.64.48,3.16,3.16,0,0,0-.91,1.91h-.32v-3Z"/><path class="cls-46" d="M57.35,102.65l.09,3.74H57.1a3.79,3.79,0,0,0-1.18-2.26,3,3,0,0,0-2-.86,1.92,1.92,0,0,0-1.34.45,1.37,1.37,0,0,0-.49,1,1.3,1.3,0,0,0,.17.66,2.8,2.8,0,0,0,.77.77,17,17,0,0,0,1.8,1A7.89,7.89,0,0,1,57.46,109a3.09,3.09,0,0,1,.67,2A3.2,3.2,0,0,1,57,113.38a4,4,0,0,1-2.79,1,4.64,4.64,0,0,1-1-.11,7.13,7.13,0,0,1-1.18-.4,1.88,1.88,0,0,0-.66-.17.82.82,0,0,0-.45.17,1.18,1.18,0,0,0-.39.5h-.31v-4.23h.31a4.82,4.82,0,0,0,1.4,2.72,3.27,3.27,0,0,0,2.24.94,2.14,2.14,0,0,0,1.48-.5,1.58,1.58,0,0,0,.55-1.18,1.57,1.57,0,0,0-.21-.77,2.61,2.61,0,0,0-.64-.71,10.4,10.4,0,0,0-1.53-.87,13.4,13.4,0,0,1-2.2-1.28,3.91,3.91,0,0,1-1-1.18,3,3,0,0,1-.36-1.44,3,3,0,0,1,1-2.29,3.42,3.42,0,0,1,2.48-.94,4.16,4.16,0,0,1,1.06.13,5.82,5.82,0,0,1,1,.37,2.2,2.2,0,0,0,.78.27.45.45,0,0,0,.34-.13,1.55,1.55,0,0,0,.23-.64Z"/><path class="cls-47" d="M173.51,168.32a10.27,10.27,0,0,1-3.29-5.16,24.26,24.26,0,0,1,0-12.89H154.44a24.14,24.14,0,0,1,0,12.89,10.27,10.27,0,0,1-3.29,5.16h0s7.86,10,10.42,16h0V166.1a3.49,3.49,0,0,1-1.46-6,3.56,3.56,0,0,1,4.4,0,3.49,3.49,0,0,1-1.46,6v18.17h0c2.56-6,10.42-16,10.42-16Z"/><polygon class="cls-47" points="170.74 148.79 153.96 148.79 153.46 146.12 171.24 146.12 170.74 148.79"/><polygon class="cls-47" points="171.24 144.65 153.46 144.65 151.19 141.98 173.51 141.98 171.24 144.65"/><path class="cls-47" d="M163,105.07a14.91,14.91,0,0,1-.11,13.22,34.54,34.54,0,0,1-4.25,6.4c-1.64,2.11-3.45,4.31-3.57,7.1s1.21,5.6,2.08,8.31c-3.46-2.26-6.25-6.25-6-10.52.21-3.08,1.92-5.74,3.76-8.12,2.06-2.64,4.32-5.14,5.79-8.18A30.68,30.68,0,0,0,163,105.07Z"/><path class="cls-47" d="M165,140.1c.58-5,4.15-8.82,7.36-12.43,1.93,2.19,1,5.81-.38,8S167.87,140.07,165,140.1Z"/><path class="cls-47" d="M168,114.8c2.9,4.06,1.71,9.31-.82,13.2-1.33,2-3.08,3.81-4.2,6a13.6,13.6,0,0,0-1.1,6.12,7.8,7.8,0,0,1-2.69-5.92,11.82,11.82,0,0,1,2.1-6.22c1.31-2.07,2.92-3.95,4.14-6.07A29.36,29.36,0,0,0,168,114.8Z"/><path class="cls-47" d="M154.49,177.12a23.83,23.83,0,0,1-5-42.58,13.49,13.49,0,0,1-.58-2,25.94,25.94,0,0,0-10.38,12,25.84,25.84,0,0,0,5.54,28.35,25.93,25.93,0,0,0,8.23,5.55,26.33,26.33,0,0,0,3.94,1.3C155.66,178.86,155.07,178,154.49,177.12Z"/><path class="cls-47" d="M186.19,144.54a25.79,25.79,0,0,0-5.54-8.23,26.25,26.25,0,0,0-4.79-3.77,11.94,11.94,0,0,1-.54,2.05,23.84,23.84,0,0,1-5.14,42.54c-.59.86-1.17,1.74-1.73,2.62a26.74,26.74,0,0,0,4-1.31,25.88,25.88,0,0,0,15.81-23.84A25.62,25.62,0,0,0,186.19,144.54Z"/></g></g></svg>